<?xml version="1.0" standalone="no"?>
<!DOCTYPE svg PUBLIC "-//W3C//DTD SVG 20010904//EN"
 "http://www.w3.org/TR/2001/REC-SVG-20010904/DTD/svg10.dtd">
<svg version="1.0" xmlns="http://www.w3.org/2000/svg"
 width="751.000000pt" height="751.000000pt" viewBox="0 0 751.000000 751.000000"
 preserveAspectRatio="xMidYMid meet">
<metadata>
Created by potrace 1.11, written by Peter Selinger 2001-2013
</metadata>
<g transform="translate(0.000000,751.000000) scale(0.100000,-0.100000)"
fill="#000000" stroke="none">
<path d="M3587 7084 c-1 -1 -20 -3 -42 -5 -22 -1 -44 -6 -50 -9 -13 -9 -89
-27 -138 -34 -20 -3 -44 -12 -53 -20 -8 -9 -27 -16 -42 -16 -15 0 -42 -9 -60
-20 -18 -11 -38 -20 -45 -20 -20 0 -118 -53 -189 -101 -15 -11 -34 -19 -43
-19 -9 0 -35 -9 -57 -20 -23 -11 -52 -20 -65 -20 -13 0 -42 -9 -66 -19 -40
-19 -99 -34 -113 -31 -4 1 -11 -5 -16 -14 -5 -9 -16 -16 -25 -16 -24 0 -83
-23 -83 -32 0 -4 -9 -8 -20 -8 -24 0 -70 -20 -70 -31 0 -5 -18 -12 -39 -15
-22 -4 -42 -12 -45 -19 -2 -7 -17 -16 -33 -20 -15 -3 -32 -10 -38 -15 -5 -5
-41 -25 -80 -45 -38 -20 -77 -43 -86 -51 -8 -8 -21 -14 -27 -14 -6 0 -23 -10
-39 -22 -34 -27 -59 -44 -93 -60 -14 -7 -31 -21 -38 -30 -7 -10 -20 -18 -28
-18 -8 0 -17 -7 -20 -15 -3 -8 -15 -17 -27 -21 -12 -4 -26 -12 -33 -18 -6 -6
-29 -24 -50 -41 -21 -16 -45 -38 -53 -47 -9 -10 -19 -18 -23 -18 -5 0 -25 -15
-46 -34 -87 -80 -117 -106 -124 -106 -5 0 -8 -7 -8 -15 0 -8 -5 -15 -10 -15
-6 0 -22 -12 -36 -27 -14 -16 -51 -55 -82 -89 -89 -95 -132 -144 -132 -151 0
-3 -7 -13 -16 -22 -45 -46 -87 -99 -100 -124 -14 -27 -24 -40 -68 -90 -10 -12
-23 -34 -28 -49 -6 -16 -14 -28 -19 -28 -5 0 -9 -6 -9 -14 0 -7 -7 -19 -16
-27 -9 -7 -23 -27 -32 -44 -9 -18 -28 -53 -41 -78 -14 -26 -28 -47 -32 -47 -4
0 -10 -13 -14 -30 -4 -16 -10 -30 -15 -30 -5 0 -12 -10 -15 -22 -4 -13 -27
-64 -51 -115 -24 -50 -44 -98 -44 -106 0 -9 -4 -17 -9 -19 -6 -1 -16 -25 -23
-53 -7 -27 -17 -53 -22 -57 -10 -7 -13 -14 -23 -68 -3 -19 -12 -44 -19 -55 -7
-11 -16 -38 -20 -60 -3 -22 -11 -49 -17 -60 -6 -11 -12 -24 -14 -30 -4 -17
-14 -74 -17 -97 -1 -13 -9 -36 -16 -53 -7 -16 -13 -32 -12 -35 1 -9 -16 -133
-22 -157 -20 -79 -22 -96 -31 -278 -7 -135 -14 -154 -57 -155 -10 0 -18 -4
-18 -10 0 -5 -4 -9 -8 -7 -5 1 -23 -13 -40 -32 -28 -29 -32 -40 -32 -88 0 -73
16 -103 72 -132 16 -8 28 -18 28 -23 0 -4 9 -8 20 -8 28 0 37 -25 39 -105 1
-39 4 -84 6 -100 6 -49 16 -98 20 -105 3 -4 7 -32 10 -61 11 -99 15 -120 29
-147 7 -15 16 -49 19 -77 3 -27 12 -63 21 -80 8 -16 17 -46 19 -65 3 -19 6
-36 7 -37 2 -2 3 -6 4 -10 1 -5 7 -17 12 -28 6 -11 17 -42 23 -70 7 -27 16
-52 21 -55 5 -3 12 -21 15 -40 3 -19 13 -42 21 -51 7 -8 14 -22 14 -30 0 -12
33 -88 63 -144 52 -97 54 -95 -108 -95 l-133 0 -35 -35 c-19 -19 -42 -51 -51
-70 -16 -34 -16 -39 0 -80 18 -48 58 -95 81 -95 8 0 11 -4 8 -10 -3 -5 2 -11
12 -11 30 -3 313 -9 383 -8 59 0 67 -3 92 -30 16 -16 28 -32 28 -36 0 -7 46
-71 68 -93 6 -7 12 -17 12 -20 0 -4 18 -25 40 -47 21 -22 39 -44 40 -50 0 -5
9 -18 19 -30 79 -83 127 -135 124 -135 -5 0 142 -141 189 -182 24 -21 66 -58
93 -83 28 -24 54 -45 58 -45 4 0 18 -10 31 -22 37 -36 65 -58 75 -58 4 0 16
-9 26 -20 10 -11 24 -20 31 -20 7 0 19 -8 26 -17 7 -10 25 -24 41 -32 15 -8
27 -18 27 -23 0 -4 4 -8 9 -8 6 0 29 -13 53 -29 45 -30 96 -60 163 -95 22 -12
42 -23 45 -26 3 -3 16 -10 30 -16 14 -7 62 -30 107 -53 46 -22 92 -41 103 -41
11 0 20 -4 20 -8 0 -4 17 -14 38 -21 20 -7 56 -21 79 -32 24 -10 57 -19 75
-19 17 0 28 -3 25 -7 -9 -9 48 -33 77 -33 12 0 41 -9 64 -20 22 -11 59 -20 81
-20 22 0 43 -4 46 -10 3 -5 15 -10 26 -10 10 0 19 -4 19 -8 0 -5 26 -10 57
-11 32 -1 60 -5 63 -9 3 -4 21 -9 40 -11 19 -1 39 -7 45 -12 5 -5 47 -9 92 -9
50 0 95 -5 111 -13 29 -15 66 -17 347 -17 234 0 336 5 344 18 3 6 47 12 96 13
50 1 97 5 105 9 8 4 29 10 45 11 17 2 32 7 35 11 3 4 29 8 58 9 29 2 55 6 58
11 3 4 16 8 29 8 13 0 25 4 27 9 2 5 23 10 48 12 25 1 61 10 80 20 19 9 61 22
93 29 31 6 55 16 52 21 -4 5 7 9 22 9 31 0 83 20 83 33 0 4 11 7 26 7 14 0 44
10 67 22 67 34 76 38 92 38 8 0 15 5 15 10 0 6 7 10 16 10 9 0 41 14 71 30 30
17 60 30 68 30 7 0 15 6 18 14 3 7 17 16 32 20 25 6 83 42 95 58 3 4 22 14 43
23 20 8 37 20 37 25 0 5 11 12 24 16 14 3 32 14 42 25 9 10 21 19 26 19 5 0
28 15 51 34 23 18 53 39 67 46 14 7 29 19 33 26 4 8 13 14 18 14 10 0 75 48
115 85 12 11 48 43 80 71 71 62 124 113 124 118 0 2 28 33 63 69 78 81 128
137 121 137 -2 0 11 16 31 35 19 20 35 40 35 45 0 6 9 15 20 22 11 7 20 19 20
26 0 7 6 15 14 18 8 3 22 21 31 40 9 19 20 34 25 34 6 0 10 7 10 15 0 8 10 23
21 34 23 21 39 46 64 98 8 18 19 33 24 33 5 0 14 12 20 28 7 15 23 45 36 67
14 22 33 59 44 81 11 23 24 45 30 48 6 4 11 15 11 24 0 9 9 28 20 42 11 14 20
34 20 46 0 12 9 31 20 44 11 12 22 38 26 56 3 19 10 34 14 34 7 0 18 28 26 70
2 8 12 33 24 55 11 21 20 47 20 58 0 10 9 35 20 56 10 21 20 55 22 75 1 20 6
36 10 36 4 0 7 3 6 8 -1 4 4 19 9 33 6 14 12 43 14 65 2 21 9 48 16 59 7 11
15 43 18 70 8 79 17 129 23 140 11 18 18 82 27 235 3 52 8 118 12 145 7 62 8
259 0 300 -3 17 -8 84 -12 150 -9 161 -14 200 -28 235 -4 8 -11 54 -16 102 -6
48 -17 101 -25 117 -9 17 -16 45 -16 63 0 18 -6 45 -14 60 -8 15 -20 53 -27
85 -7 32 -18 67 -25 78 -7 11 -15 34 -17 51 -3 17 -12 42 -20 55 -8 13 -18 40
-22 59 -4 19 -13 42 -20 50 -7 8 -18 34 -24 58 -7 23 -16 42 -21 42 -6 0 -10
5 -10 12 0 13 -60 141 -70 148 -4 3 -13 22 -19 42 -7 21 -17 40 -22 44 -5 3
-16 20 -24 37 -15 32 -24 48 -60 102 -28 41 -42 66 -54 93 -6 12 -14 22 -19
22 -5 0 -17 16 -28 35 -10 19 -22 35 -26 35 -5 0 -8 5 -8 11 0 6 -14 28 -30
48 -17 20 -35 41 -40 48 -149 187 -337 380 -488 501 -32 26 -64 53 -72 59 -30
25 -76 59 -120 88 -25 17 -47 33 -50 36 -3 3 -20 14 -37 23 -18 9 -33 21 -33
26 0 6 -8 10 -19 10 -10 0 -24 7 -32 16 -7 8 -26 22 -43 31 -17 9 -33 19 -36
22 -3 4 -22 15 -42 24 -20 10 -40 22 -43 26 -3 5 -19 12 -35 16 -17 4 -28 10
-25 14 2 5 -13 13 -34 20 -21 6 -44 18 -51 26 -7 8 -19 15 -28 15 -14 0 -77
27 -163 72 -20 10 -48 18 -62 18 -14 0 -27 7 -31 15 -3 8 -9 14 -13 13 -17 -3
-85 15 -120 33 -21 11 -50 19 -65 19 -15 0 -42 9 -60 20 -18 11 -43 20 -55 20
-13 0 -23 5 -23 10 0 6 -7 10 -15 10 -8 0 -15 5 -15 10 0 6 -9 10 -19 10 -11
0 -23 9 -26 20 -4 12 -15 20 -29 20 -12 0 -32 9 -44 20 -12 11 -32 20 -45 20
-13 0 -33 9 -45 20 -12 11 -30 20 -41 20 -11 0 -36 9 -55 19 -18 11 -56 21
-82 22 -27 1 -58 6 -69 10 -50 18 -61 22 -80 25 -23 4 -444 12 -448 8z"/>
</g>
</svg>
